<svg width="250" height="215" viewBox="0 0 250 215" fill="none" xmlns="http://www.w3.org/2000/svg">
<circle cx="125" cy="102" r="102" fill="#E7F0F8"/>
<path d="M194 66.25H138C124.469 66.25 113.5 77.219 113.5 90.75V171.25C113.5 184.781 124.469 195.75 138 195.75H194C207.531 195.75 218.5 184.781 218.5 171.25V90.75C218.5 77.219 207.531 66.25 194 66.25Z" stroke="#214184" stroke-width="10.5" stroke-linecap="round" stroke-linejoin="round"/>
<path d="M141.5 94.285H190.5M141.5 122.285H190.5M141.5 150.285H166" stroke="#214184" stroke-width="10.5" stroke-linecap="round" stroke-linejoin="round"/>
<path fill-rule="evenodd" clip-rule="evenodd" d="M29.1482 39.1482V21.8518C29.1482 15.4747 34.6229 10 41 10C47.3771 10 52.8518 15.4747 52.8518 21.8518V39.1482H70.1482C76.5253 39.1482 82 44.6229 82 51C82 57.3771 76.5253 62.8518 70.1482 62.8518H52.8518V80.1482C52.8518 86.5253 47.3771 92 41 92C34.6229 92 29.1482 86.5253 29.1482 80.1482V62.8518H11.8518C5.47469 61.9494 0 56.4747 0 50.0976C0 43.7205 5.47469 38.2458 11.8518 38.2458H29.1482V39.1482Z" fill="#8D9AB9"/>
</svg>
